<svg width="512" height="512" viewBox="0 0 512 512" fill="none" xmlns="http://www.w3.org/2000/svg">
<g clip-path="url(#clip0)">
<path d="M472.271 216.272L256.005 432.542L39.729 216.27C30.642 207.183 15.905 207.181 6.81699 216.272C-2.27201 225.361 -2.27201 240.096 6.81699 249.184L239.55 481.911C243.914 486.275 249.833 488.727 256.005 488.727C262.177 488.727 268.097 486.274 272.46 481.91L505.181 249.183C514.27 240.094 514.27 225.359 505.181 216.271C496.095 207.183 481.358 207.181 472.271 216.272Z" fill="#D8E2DC"/>
<path d="M239.55 295.729C243.914 300.093 249.833 302.545 256.005 302.545C262.177 302.545 268.097 300.092 272.46 295.728L505.182 63C514.271 53.911 514.271 39.176 505.182 30.088C496.095 20.999 481.358 20.999 472.27 30.088L256.004 246.358L39.729 30.088C30.642 20.999 15.905 20.999 6.81699 30.088C-2.27101 39.177 -2.27201 53.912 6.81699 63L239.55 295.729Z" fill="#D8E2DC"/>
</g>
<defs>
<clipPath id="clip0">
<rect width="511.998" height="511.998" fill="white"/>
</clipPath>
</defs>
</svg>
